<svg width="5" height="21" viewBox="0 0 5 21" fill="none" xmlns="http://www.w3.org/2000/svg">
    <path d="M0 18.5001C0 18.0057 0.146683 17.5221 0.421387 17.1109C0.69609 16.6998 1.08664 16.3798 1.54346 16.1905C2.00027 16.0013 2.50284 15.9515 2.98779 16.048C3.47275 16.1444 3.91795 16.3829 4.26758 16.7325C4.61721 17.0822 4.85569 17.5274 4.95215 18.0123C5.04861 18.4973 4.99879 18.9998 4.80957 19.4566C4.62035 19.9135 4.30028 20.304 3.88916 20.5787C3.47804 20.8534 2.99445 21.0001 2.5 21.0001C1.83696 21.0001 1.20126 20.7365 0.732422 20.2677C0.263581 19.7988 0 19.1631 0 18.5001ZM0 10.5001C0 10.0057 0.146683 9.52207 0.421387 9.11094C0.69609 8.69982 1.08664 8.37975 1.54346 8.19053C2.00027 8.00132 2.50284 7.95149 2.98779 8.04796C3.47275 8.14442 3.91795 8.3829 4.26758 8.73253C4.61721 9.08216 4.85569 9.52736 4.95215 10.0123C5.04861 10.4973 4.99879 10.9998 4.80957 11.4566C4.62035 11.9135 4.30028 12.304 3.88916 12.5787C3.47804 12.8534 2.99445 13.0001 2.5 13.0001C1.83696 13.0001 1.20126 12.7365 0.732422 12.2677C0.263581 11.7988 0 11.1631 0 10.5001ZM0 2.50011C0 2.00565 0.146683 1.52207 0.421387 1.11095C0.69609 0.699822 1.08664 0.379754 1.54346 0.190535C2.00027 0.00131595 2.50284 -0.0485061 2.98779 0.0479569C3.47275 0.14442 3.91795 0.382896 4.26758 0.732527C4.61721 1.08216 4.85569 1.52736 4.95215 2.01231C5.04861 2.49726 4.99879 2.99983 4.80957 3.45665C4.62035 3.91346 4.30028 4.30402 3.88916 4.57872C3.47804 4.85342 2.99445 5.00011 2.5 5.00011C1.83696 5.00011 1.20126 4.73652 0.732422 4.26768C0.263581 3.79884 0 3.16315 0 2.50011Z" fill="#000"/>
</svg>